<svg xmlns="http://www.w3.org/2000/svg" width="1024" height="1024"><path fill="#2196f3" d="M928 128H96.001C43.063 128 0 171.063 0 224.001V800c0 52.934 43.063 96 96.001 96H928c52.934 0 96-43.066 96-96V224.001c0-52.938-43.066-96.001-96-96.001zm0 64c4.346 0 8.48.902 12.262 2.477L512 565.657 83.733 194.477C87.515 192.904 91.65 192 95.999 192H928zm0 640H96.001C78.345 832 64 817.658 64 800V262.093l427.031 370.093c6.032 5.217 13.5 7.812 20.969 7.812s14.937-2.593 20.969-7.812L960 262.093V800c0 17.658-14.342 32-32 32z"/></svg>