<!-- Generated by IcoMoon.io -->
<svg version="1.1" xmlns="http://www.w3.org/2000/svg" width="1024" height="1024" viewBox="0 0 1024 1024">
<title>envelope-hover</title>
<g id="icomoon-ignore">
</g>
<path fill="#2196f3" d="M928 128h-831.999c-52.938 0-96.001 43.063-96.001 96.001v575.999c0 52.934 43.063 96 96.001 96h831.999c52.934 0 96-43.066 96-96v-575.999c0-52.938-43.066-96.001-96-96.001zM928 192c4.346 0 8.48 0.902 12.262 2.477l-428.262 371.18-428.267-371.18c3.782-1.573 7.917-2.477 12.266-2.477h832.001zM928 832h-831.999c-17.656 0-32.001-14.342-32.001-32v-537.907l427.031 370.093c6.032 5.217 13.5 7.812 20.969 7.812s14.937-2.593 20.969-7.812l427.031-370.093v537.907c0 17.658-14.342 32-32 32z"></path>
</svg>
